<svg id="Layer_1" data-name="Layer 1" xmlns="http://www.w3.org/2000/svg" width="242" height="222" viewBox="0 0 242 222">
  <defs>
    <style>
      .cls-1 {
        fill: #8fdbdc;
      }

      .cls-2 {
        isolation: isolate;
      }

      .cls-3 {
        fill: #fff;
      }
    </style>
  </defs>
  <rect id="Rectangle_2" data-name="Rectangle 2" class="cls-1" x="121.34" y="72.54" width="62.29" height="41.91"/>
  <rect id="Rectangle_1" data-name="Rectangle 1" class="cls-1" x="57.91" y="126.91" width="135.92" height="43.04"/>
  <g id="Group_1" data-name="Group 1">
    <path id="Path_1" data-name="Path 1" class="cls-1" d="M48.2,104.53c9.91-3.72,19.38-7.31,28.87-10.81,3-1.11,6.19-1.88,9.21-3,2.57-.95,4.33-.3,5.93,1.86,4.63,6.24,9.38,12.4,14.08,18.58.75,1,1.51,1.95,2.69,3.45a37.14,37.14,0,0,1-4.35,0Q92.9,113,81.19,111.3q-13.47-2-26.91-4.08A10,10,0,0,1,48.2,104.53Z"/>
    <path id="Path_2" data-name="Path 2" class="cls-1" d="M47.72,102.75a9.58,9.58,0,0,1,1.15-1.92Q70.91,77.37,93,54a10.59,10.59,0,0,1,2.3-1.41l.52.45c-.4,2.42-.68,4.88-1.23,7.27-1.46,6.49-3,12.95-4.57,19.41A11.47,11.47,0,0,1,83.2,88C78,90.27,72.79,92.72,67.56,95c-5.87,2.57-11.77,5-17.66,7.55-.56.23-1.15.41-1.73.61Z"/>
    <path id="Path_3" data-name="Path 3" class="cls-1" d="M109.37,113.44c-1.93-3.09-3.91-6.16-5.77-9.29-3-5.13-6.12-10.24-8.95-15.48a9.43,9.43,0,0,1-1.12-5.12c1-9.76,2.28-19.49,3.46-29.23,0-.16.17-.31.5-.89a21.66,21.66,0,0,1,1.17,3.08c1.65,7.71,3.23,15.43,4.85,23.15,2.07,9.84,4.18,19.67,6.23,29.52a35.45,35.45,0,0,1,.39,4.12Z"/>
  </g>
  <g id="Me" class="cls-2">
    <g class="cls-2">
      <path class="cls-3" d="M130.37,79.19,140.06,105l9.73-25.82h5.59v30.73h-3.87V84.36h-.09l-9.6,25.56h-3.48l-9.6-25.56h-.09v25.56h-3.87V79.19Z"/>
      <path class="cls-3" d="M177.33,108.5a10.1,10.1,0,0,1-6.28,1.89,11.32,11.32,0,0,1-4.63-.86,9,9,0,0,1-3.29-2.41,10.08,10.08,0,0,1-2-3.7,17.7,17.7,0,0,1-.76-4.69,13.35,13.35,0,0,1,.78-4.65,11.17,11.17,0,0,1,2.17-3.66A10,10,0,0,1,166.63,88a10.21,10.21,0,0,1,4.2-.86,9.13,9.13,0,0,1,4.93,1.23,9.85,9.85,0,0,1,3.14,3.12,12.28,12.28,0,0,1,1.64,4.13,17.61,17.61,0,0,1,.36,4.26H164.25a8.77,8.77,0,0,0,.34,2.78,6.22,6.22,0,0,0,1.25,2.32,6,6,0,0,0,2.19,1.62,7.63,7.63,0,0,0,3.15.6,6.26,6.26,0,0,0,3.8-1.08,5.14,5.14,0,0,0,2-3.27h3.62A8.91,8.91,0,0,1,177.33,108.5Zm-.88-14.29a6.2,6.2,0,0,0-3.32-3.33,6.25,6.25,0,0,0-2.51-.5,6.35,6.35,0,0,0-2.56.5,5.81,5.81,0,0,0-2,1.35,6.37,6.37,0,0,0-1.29,2,7.31,7.31,0,0,0-.56,2.44H177A7.56,7.56,0,0,0,176.45,94.21Z"/>
    </g>
  </g>
  <g id="Mover" class="cls-2">
    <g class="cls-2">
      <path class="cls-3" d="M68.79,131.13,79.24,159l10.5-27.86h6v33.16H91.59V136.7H91.5L81.15,164.29H77.38L67,136.7h-.09v27.59H62.76V131.13Z"/>
      <path class="cls-3" d="M101.9,147.36a11.29,11.29,0,0,1,2.23-4,10.45,10.45,0,0,1,3.67-2.67,13.37,13.37,0,0,1,10,0,10.56,10.56,0,0,1,3.65,2.67,11.29,11.29,0,0,1,2.23,4,16.14,16.14,0,0,1,.74,4.95,16,16,0,0,1-.74,4.92,11.29,11.29,0,0,1-2.23,4,10.38,10.38,0,0,1-3.65,2.65,13.76,13.76,0,0,1-10,0,10.28,10.28,0,0,1-3.67-2.65,11.29,11.29,0,0,1-2.23-4,16,16,0,0,1-.74-4.92A16.14,16.14,0,0,1,101.9,147.36Zm4,8.82a8.22,8.22,0,0,0,1.6,2.84,6.91,6.91,0,0,0,2.39,1.74,7.33,7.33,0,0,0,5.81,0,6.91,6.91,0,0,0,2.39-1.74,8.22,8.22,0,0,0,1.6-2.84,13.23,13.23,0,0,0,0-7.75,8.51,8.51,0,0,0-1.6-2.86,6.84,6.84,0,0,0-2.39-1.76,7.22,7.22,0,0,0-5.81,0,6.84,6.84,0,0,0-2.39,1.76,8.51,8.51,0,0,0-1.6,2.86,13.23,13.23,0,0,0,0,7.75Z"/>
      <path class="cls-3" d="M135.71,164.29l-8.92-24h4.41l6.74,20H138l6.55-20h4.13l-8.78,24Z"/>
      <path class="cls-3" d="M169.33,162.75a10.87,10.87,0,0,1-6.78,2.05,12.31,12.31,0,0,1-5-.93,9.92,9.92,0,0,1-3.56-2.6,11.12,11.12,0,0,1-2.15-4,19.21,19.21,0,0,1-.82-5.07,14.35,14.35,0,0,1,.84-5,12.17,12.17,0,0,1,2.34-3.95,10.74,10.74,0,0,1,3.58-2.6,10.93,10.93,0,0,1,4.53-.93,9.84,9.84,0,0,1,5.31,1.32,10.6,10.6,0,0,1,3.39,3.37,13.23,13.23,0,0,1,1.77,4.46,19,19,0,0,1,.39,4.6h-18a9.78,9.78,0,0,0,.37,3,6.78,6.78,0,0,0,1.35,2.51,6.58,6.58,0,0,0,2.37,1.74,8.07,8.07,0,0,0,3.39.65,6.87,6.87,0,0,0,4.11-1.16,5.59,5.59,0,0,0,2.11-3.53h3.9A9.58,9.58,0,0,1,169.33,162.75Zm-1-15.41a6.81,6.81,0,0,0-1.44-2.16,6.8,6.8,0,0,0-4.86-2,6.8,6.8,0,0,0-2.76.54,6.28,6.28,0,0,0-2.11,1.46,7,7,0,0,0-1.39,2.16,8.22,8.22,0,0,0-.61,2.62H169A8.15,8.15,0,0,0,168.38,147.34Z"/>
      <path class="cls-3" d="M180.85,140.28v5.06h.09a10.66,10.66,0,0,1,3.53-4.32,8.85,8.85,0,0,1,5.29-1.3v4.18a11.25,11.25,0,0,0-4,.65,6.41,6.41,0,0,0-2.69,1.91,7.87,7.87,0,0,0-1.49,3,16.39,16.39,0,0,0-.46,4.11v10.68h-4v-24Z"/>
    </g>
  </g>
</svg>
